<svg xmlns="http://www.w3.org/2000/svg" width="1080" height="300" viewBox="0 0 1080 300">
  <g>
    <g>
      <path d="M69.89552,150.82163c0-56.83451,39.75114-97.57116,95.27147-97.57116V26.96883C91.90645,26.96883,40,78.5466,40,150.82163c0,.055.0018.10933.0018.16434H69.89732C69.89732,150.931,69.89552,150.87663,69.89552,150.82163Z"/>
      <g>
        <path d="M192.80678,32.61788l-.4156,2.76674c-5.88966,3.58147-10.90516,11.55454-12.0118,18.9222l-3.80034-.57093c1.14651-7.63411,7.17221-15.52385,11.81841-18.54159l.01-.06686-12.23478-1.8378.46575-3.1Z"/>
        <path d="M190.50915,49.12364c.99091-3.045,3.47886-3.9369,5.8966-4.17762l.02109-.06429a5.40188,5.40188,0,0,1-1.469-5.7243c1.2414-3.814,5.07-5.01344,9.36492-3.61542,4.29489,1.39751,6.68408,4.621,5.44268,8.435a5.45546,5.45546,0,0,1-4.5567,3.763l-.02083.0643c1.7807,1.60737,3.29909,3.80316,2.30818,6.84816-1.46052,4.48675-5.86626,5.499-10.6737,3.93381C192.01467,57.0216,189.04863,53.61038,190.50915,49.12364Zm13.45972,4.16784c.80343-2.46789-.54368-4.53664-3.62057-5.53809s-5.38378-.12191-6.18695,2.346c-.824,2.53219.52284,4.60094,3.59973,5.60239S203.14487,55.82366,203.96887,53.29148Zm2.32541-10.30208c.71985-2.21174-.38962-3.81345-2.88941-4.62716-2.5-.81372-4.33963-.1718-5.05922,2.03994-.73039,2.24363.39965,3.78105,2.89969,4.59476S205.56389,45.23252,206.29428,42.9894Z"/>
        <path d="M232.74592,49.763l2.47355,1.51222L212.0232,64.39853l-2.50235-1.5297ZM213.8052,45.45421c1.93424-3.16382,5.1212-4.69249,8.429-2.67055,3.279,2.005,3.42871,5.57358,1.49447,8.7374-1.952,3.19262-5.139,4.72181-8.4756,2.68186C212.00288,52.216,211.85321,48.64734,213.8052,45.45421Zm7.30594,4.46668c1.33656-2.186,1.40394-4.04131-.178-5.00882-1.58217-.967-3.20291-.06121-4.53921,2.12482-1.33656,2.186-1.40394,4.04182.17823,5.00881C218.15409,53.0127,219.77484,52.10691,221.11114,49.92089ZM221.069,62.65846c1.952-3.19314,5.13895-4.72181,8.44679-2.69987,3.279,2.005,3.39991,5.5561,1.44817,8.74872-1.9345,3.16381-5.12146,4.693-8.4293,2.67054C219.25559,69.3734,219.13472,65.82227,221.069,62.65846Zm7.3062,4.46617c1.3363-2.186,1.40394-4.04131-.17822-5.00882-1.58191-.967-3.20266-.06121-4.53921,2.12481-1.33631,2.186-1.40369,4.04183.17822,5.00882S227.0386,69.31065,228.37516,67.12463Z"/>
        <path d="M251.00486,63.60127l2.69061,3.28727-7.25888,20.40561.04295.052,14.348-11.74434,2.37042,2.89532L244.54529,93.76529l-2.6906-3.28675L249.092,70.0467l-.04269-.05247L234.701,81.73908l-2.34881-2.8696Z"/>
        <path d="M249.54485,92.34515c2.61732-1.46644,5.44063-1.11667,7.20359,2.03017,1.40034,2.49927,1.06215,4.93012-1.23163,6.215-2.29378,1.28538-4.40908.268-6.46214-.70673a7.19469,7.19469,0,0,0-3.05194-1.03335l-.02932.01646,2.982,5.32258-2.1171,1.18611-5.04174-8.99818c2.17625-1.21954,3.80805-.85846,6.29035.26181,2.22022.99734,3.98961,2.363,5.75412,1.37436a1.69226,1.69226,0,0,0,.74068-2.5399c-.77437-1.38208-1.97308-1.522-3.62006-.59922Z"/>
        <path d="M267.29484,105.7951c4.73286-1.46849,9.09591-.034,10.84395,5.60033,1.24886,4.02434-.14685,8.05742-4.39673,9.37623-4.31418,1.33836-7.59244-1.49164-10.58755-4.09172-1.95713-1.75756-3.81988-3.43848-5.98353-3.47294l-.06455.02006,3.51641,11.33285-2.99408.92893-4.90517-15.80828c4.18559-1.29824,7.8401.35593,11.831,3.77642,3.45469,3.05785,4.96793,4.63539,7.92986,3.71623,1.835-.56939,3.57916-1.88718,2.63017-4.94555-1.07886-3.47706-3.66223-3.8402-6.72086-2.89121Z"/>
        <path d="M282.00805,130.62728,259.061,134.6259l-.62494-3.58662,17.036-2.96836c-1.09764-.80137-1.57625-2.56562-1.935-4.6246l2.92232-.50921c.80549,4.03411,2.24852,5.04894,5.051,4.83445Z"/>
        <path d="M266.32347,150.27319c3.74144-.06893,6.743,1.79819,6.81422,5.67439.07047,3.84226-2.85983,5.85186-6.60127,5.92078-3.70775.0679-6.709-1.79922-6.78027-5.67543C259.68542,152.35068,262.61572,150.34108,266.32347,150.27319Zm17.1487,2.92206.05324,2.89841-23.5288-12.51536-.054-2.93235Zm-16.99156,5.63943c2.56176-.04732,4.163-.98706,4.129-2.8408s-1.66858-2.73433-4.23034-2.687c-2.56176.04681-4.163.98654-4.129,2.84029C262.28448,158.00142,263.91911,158.88148,266.48061,158.83468Zm10.45176-23.92949c3.70775-.06789,6.709,1.79871,6.78026,5.67492.07047,3.84277-2.85906,5.8858-6.56681,5.95369-3.74144.06893-6.743-1.79768-6.81473-5.70783C270.26114,137.01715,273.19092,134.97412,276.93237,134.90519Zm.15713,8.5615c2.56176-.04681,4.163-.98654,4.12875-2.8408-.03394-1.85375-1.66857-2.73433-4.23033-2.687-2.56176.04681-4.163.98654-4.12876,2.8408C272.89311,142.63342,274.52774,143.51349,277.0895,143.46669Z"/>
        <path d="M271.1623,171.26157c7.00684,1.85272,10.9103,7.66136,9.07533,14.60262-1.84372,6.97419-8.10808,10.09531-15.11467,8.24259-7.00684-1.8522-10.943-7.66959-9.09925-14.64377C257.85868,172.52175,264.15571,169.40936,271.1623,171.26157Zm-5.05717,19.13c4.79047,1.26687,9.58043.162,11.03658-5.34572,1.4474-5.47483-2.17085-8.80221-6.96158-10.06907-4.79047-1.26635-9.6131-.17026-11.0605,5.30457C257.66374,185.7891,261.3144,189.12523,266.10513,190.39157Z"/>
        <path d="M257.86665,192.9253c2.73176,1.24115,4.12156,3.724,2.62966,7.00813-1.18534,2.60883-3.34436,3.77539-5.73844,2.688-2.39408-1.08787-2.82691-3.39528-3.25717-5.62708a7.20508,7.20508,0,0,0-.97419-3.07175l-.03087-.01388-2.52369,5.55558-2.20994-1.004,4.26685-9.39218c2.27141,1.03232,2.94676,2.561,3.51359,5.22537.511,2.37942.45855,4.6143,2.3002,5.45116a1.69252,1.69252,0,0,0,2.48564-.90733c.65529-1.44277.05812-2.49155-1.66061-3.27234Z"/>
        <path d="M254.77742,213.39778c5.283,4.07989,7.91571,9.60616,3.9387,14.75591s-9.98935,3.99913-15.27232-.08076c-5.28323-4.07988-7.88923-9.58557-3.91221-14.73533S249.49419,209.31738,254.77742,213.39778Zm-9.00513,11.66c3.789,2.92618,7.88666,4.51452,10.46231,1.17942,2.55533-3.30886.00308-6.89857-3.78568-9.82424-3.789-2.92618-7.88074-4.46771-10.43581-1.15885C239.4372,218.5892,241.98328,222.13158,245.77229,225.05777Z"/>
        <path d="M231.55235,219.10922c-.6252,1.14136-.55756,1.97565.7,3.19725l1.24526-1.23343,2.5862,2.61036-2.61063,2.5862-2.58593-2.61089a4.30165,4.30165,0,0,1-.61621-5.8431Z"/>
        <path d="M237.6925,233.78231c4.02588,5.32412,5.11478,11.34828-.0751,15.27232-5.19013,3.92455-10.68913,1.23549-14.715-4.08915-4.02614-5.32463-5.09472-11.32153.09541-15.24557C228.18768,225.79536,233.66662,228.45767,237.6925,233.78231ZM225.941,242.66785c2.88735,3.81859,6.42408,6.42741,9.78541,3.886,3.33458-2.52138,1.81465-6.65528-1.0727-10.47387-2.88709-3.8186-6.4305-6.38061-9.76483-3.85923C221.52725,234.76216,223.05361,238.84925,225.941,242.66785Z"/>
        <path d="M205.80847,240.4237l2.28426,4.81131,9.98807-4.74238,1.44586,3.045-3.72756,17.92795-3.31941,1.576-6.36158-13.39851-2.92335,1.38773-1.34453-2.83205,2.92335-1.38774-2.28452-4.81131Zm10.60221,4.33244-6.97341,3.31092,4.352,9.16586Z"/>
        <path d="M188.01631,252.61605c.83043,3.64885-.38474,6.968-4.16476,7.82853-3.74735.8528-6.3122-1.60583-7.14289-5.25469-.823-3.61542.3922-6.93457,4.17222-7.79509C184.62823,246.542,187.19308,249.00062,188.01631,252.61605ZM179.667,254.5166c.56862,2.49824,1.81543,3.87414,3.6234,3.46266,1.80771-.41149,2.33621-2.19168,1.76759-4.6894-.56888-2.49824-1.81543-3.87415-3.6234-3.46266C179.62687,250.23868,179.09837,252.01836,179.667,254.5166Zm8.98712,15.48321-2.82691.64346,7.45228-25.58674,2.85957-.65067Zm16.57082-10.13337c.823,3.61594-.3922,6.93509-4.17247,7.79509-3.7471.85333-6.34487-1.59811-7.1681-5.21353-.83043-3.64886.38474-6.968,4.19768-7.83573C201.79648,253.76667,204.39424,256.21758,205.22493,259.86644Zm-8.34932,1.90055c.56863,2.49824,1.81543,3.87363,3.62314,3.46215,1.808-.41149,2.33647-2.19117,1.76759-4.68941-.56862-2.49823-1.81517-3.87363-3.62314-3.46214C196.83549,257.48907,196.307,259.26875,196.87561,261.767Z"/>
        <path d="M156.634,269.81464c5.31563.32507,7.60967-4.05932,7.90182-8.83667.29421-4.8108-1.44843-9.44208-6.76406-9.76715-4.6426-.28393-6.4804,2.71015-6.89472,5.62245l-3.869-.23661c.86541-5.31589,4.83625-8.95651,10.92548-8.58412,6.82939.41766,10.882,5.93312,10.43967,13.16654-.44441,7.26685-5.17264,12.24532-12.00177,11.82766-6.0558-.37033-9.5218-4.43171-9.79956-9.278l3.869.23661C150.73409,266.34735,152.02513,269.53277,156.634,269.81464Z"/>
        <path d="M144.29278,259.60823c-2.02528,6.95824-7.92857,10.71665-14.822,8.71065-6.92609-2.01576-9.89059-8.35523-7.86556-15.31346,2.02528-6.95824,7.93783-10.74906,14.86392-8.73329C143.36282,246.27813,146.31781,252.65,144.29278,259.60823ZM125.295,254.07939c-1.38465,4.7573-.39914,9.57272,5.07054,11.16466,5.43728,1.58268,8.85313-1.952,10.23778-6.70929,1.38466-4.75781.40815-9.60563-5.02888-11.18831C130.10473,245.755,126.67936,249.32158,125.295,254.07939Z"/>
        <path d="M122.994,245.74782c-1.33759,2.685-3.86823,3.98525-7.09634,2.37685-2.56459-1.27715-3.65323-3.47655-2.48075-5.82973,1.17222-2.35319,3.493-2.70347,5.73843-3.05323a7.20228,7.20228,0,0,0,3.1039-.86412l.01517-.03035-5.46094-2.71993,1.08221-2.17213,9.232,4.59887c-1.112,2.23232-2.66386,2.85263-5.34624,3.32379-2.39614.42588-4.62717.29369-5.52884,2.10372a1.69228,1.69228,0,0,0,.81757,2.51624c1.41809.70621,2.48744.14711,3.32919-1.54256Z"/>
        <path d="M102.62875,241.868c-4.30775,5.09883-9.94357,7.486-14.9133,3.28726s-3.55679-10.15446.75071-15.25277c4.30775-5.09832,9.922-7.46025,14.89169-3.26155S106.9365,236.7697,102.62875,241.868Zm-11.25287-9.50688c-3.08923,3.65606-4.8558,7.67988-1.6372,10.39929,3.19313,2.69781,6.89111.306,9.98035-3.35053s4.80847-7.67628,1.61559-10.37409C98.11577,226.3164,94.46537,228.70457,91.37588,232.36114Z"/>
        <path d="M97.94938,218.41329c-1.11205-.67484-1.94865-.64449-3.225.55705l1.17685,1.29875L93.17845,222.736l-2.46686-2.7225,2.72275-2.46686a4.30167,4.30167,0,0,1,5.86394-.35543Z"/>
        <path d="M75.64887,212.13709a6.78508,6.78508,0,0,1,5.94932,3.16588,7.36177,7.36177,0,0,1-1.96125,10.73979c-3.70441,2.58465-8.44833,2.03069-11.41875-2.22717-3.79956-5.446-1.1051-10.24447,4.7285-14.31458,6.27568-4.37822,11.8899-4.226,15.18822.5015A7.32167,7.32167,0,0,1,87.288,219.924l-2.16031-3.09644a3.55605,3.55605,0,0,0,.519-5.08906c-2.48821-3.566-6.40376-2.10886-9.73217.13117l-.27672.19288Zm1.70072,10.98052c2.51573-1.75551,2.98636-4.262,1.424-6.50149a4.73561,4.73561,0,0,0-6.996-1.36716c-2.32233,1.62023-2.92258,4.17659-1.10947,6.77564C72.404,224.51255,74.9442,224.79545,77.34959,223.11761Z"/>
        <path d="M69.43876,203.73042a6.78353,6.78353,0,0,1-5.23385-4.24448,7.3608,7.3608,0,0,1,3.97753-10.16577c4.13-1.82855,8.6798-.37806,10.78146,4.36844,2.6883,6.072-.87338,10.26607-7.37666,13.14545-6.99656,3.098-12.47756,1.87535-14.8112-3.39528a7.32049,7.32049,0,0,1,2.72738-9.57529l1.52842,3.45186A3.55569,3.55569,0,0,0,59.55,202.2105c1.76039,3.976,5.88194,3.29394,9.57709,1.73184l.3081-.13631Zm.42975-11.1019c-2.80479,1.24217-3.74581,3.61234-2.64046,6.109a4.73522,4.73522,0,0,0,6.60488,2.67878c2.589-1.14651,3.66711-3.54084,2.3843-6.43771C74.9892,192.20469,72.54986,191.44138,69.86851,192.62852Z"/>
        <path d="M48.34468,173.46508l-.58328-2.83926,25.41829,7.99055.59,2.87218Zm9.77846,16.77836c-3.63162.74582-6.92377-.53905-7.7038-4.33552-.77333-3.76408,1.73185-6.30861,5.36347-7.05494,3.6648-.753,6.9567.53185,7.74366,4.36176C64.29287,186.94538,61.78769,189.49042,58.12314,190.24344Zm-1.72284-8.38609c-2.5093.51538-3.91092,1.73235-3.53775,3.54855.37291,1.81569,2.14075,2.38148,4.65005,1.86609s3.91066-1.73236,3.53775-3.54855C60.67719,181.90775,58.90934,181.342,56.4003,181.85735Zm9.33431-8.6618c-3.66454.753-6.95669-.53236-7.73671-4.32883-.77334-3.76408,1.73853-6.27569,5.40333-7.02871,3.63162-.74582,6.92377.53905,7.7038,4.33553C71.87836,169.93761,69.36624,172.44922,65.73461,173.19555Zm-1.72284-8.38609c-2.50929.51539-3.91066,1.73236-3.53775,3.54856.37316,1.81568,2.141,2.38147,4.65005,1.86609,2.5093-.51539,3.91092-1.73236,3.53776-3.54856C68.28866,164.85987,66.52081,164.29407,64.01177,164.80946Z"/>
      </g>
    </g>
    <g>
      <polygon points="337.345 266.79 382.042 266.79 382.042 240.508 367.24 240.508 367.24 61.464 382.042 61.464 382.042 35.182 337.345 35.182 337.345 266.79"/>
      <polygon points="367.24 240.508 367.24 61.464 382.042 61.464 382.042 35.182 337.345 35.182 337.345 266.79 382.042 266.79 382.042 240.508 367.24 240.508"/>
      <g>
        <path d="M408.17315,38.17244V40.97c-5.292,4.41577-9.06685,13.04464-9.06685,20.49357h-3.84277c0-7.71846,4.78636-16.41471,8.93235-20.08877v-.06738H391.82556v-3.135Z"/>
        <path d="M408.20967,54.68745c.10467-3.20085,2.2462-4.74958,4.50166-5.65383l.00232-.06738a5.402,5.402,0,0,1-3.00411-5.08957c.13116-4.00942,3.475-6.22733,7.98952-6.07971s7.70663,2.579,7.57547,6.58841a5.45582,5.45582,0,0,1-3.3297,4.88229l-.00231.06738c2.158,1.04877,4.22776,2.73535,4.12309,5.93569-.15431,4.71666-4.10458,6.915-9.15815,6.74992S408.05536,59.40411,408.20967,54.68745Zm14.0893.25821c.08461-2.59443-1.78508-4.20694-5.01937-4.31238-3.23428-.106-5.2053,1.38105-5.28991,3.97547-.08719,2.66129,1.78251,4.2738,5.01679,4.37976C420.24076,59.094,422.21178,57.60694,422.299,54.94566Zm-.63369-10.54332c.07612-2.3249-1.43506-3.55473-4.06292-3.64062s-4.21619,1.0426-4.29232,3.3675c-.07689,2.35833,1.43635,3.52078,4.0642,3.60668S421.58838,46.76068,421.66528,44.40234Z"/>
        <path d="M428.55073,44.6014c.67381-3.6468,3.10235-6.215,6.91478-5.51083,3.77924.698,5.1963,3.977,4.52275,7.62381-.67973,3.67972-3.10827,6.24791-6.95387,5.53758C429.28806,51.56015,427.871,48.28112,428.55073,44.6014Zm19.228-2.75645,2.85109.52671L433.66757,62.928l-2.88427-.53236Zm-10.80717,4.31187c.46523-2.51933-.13579-4.27586-1.95919-4.61276S432,42.633,431.53452,45.15279c-.46549,2.51933.13579,4.27586,1.95919,4.61277C435.31686,50.10246,436.50605,48.67666,436.97155,46.15682Zm4.51966,11.90842c.67972-3.67972,3.10827-6.24791,6.92069-5.54375,3.7795.698,5.16338,3.97084,4.48366,7.65056-.67381,3.6468-3.10235,6.215-6.91477,5.51083C442.20128,64.98438,440.8174,61.712,441.49121,58.06524Zm8.42056,1.55542c.46549-2.51933-.13579-4.27586-1.95919-4.61277-1.82315-.3369-3.01234,1.0889-3.47784,3.60874-.46523,2.51933.1358,4.27586,1.95919,4.61276S449.44627,62.1405,449.91177,59.62066Z"/>
        <path d="M468.73907,46.98391l3.834,1.828L474.69637,70.363l.06095.0288,7.97847-16.73516,3.37753,1.61046L475.741,77.02293l-3.83377-1.828-2.15387-21.5655-.0607-.02932L461.714,70.33525,458.367,68.73971Z"/>
        <path d="M479.688,73.56028c1.73158-2.44989,4.43094-3.349,7.37615-1.26687,2.33981,1.65366,3.08023,3.99348,1.56262,6.14041s-3.86489,2.13921-6.13784,2.1423a7.20136,7.20136,0,0,0-3.19956.38062l-.01955.02727,4.98233,3.52181-1.40085,1.98182-8.42313-5.9537c1.44-2.03686,3.06815-2.41337,5.79142-2.46995,2.43317-.055,4.61816.41612,5.7855-1.23548a1.69272,1.69272,0,0,0-.42435-2.61191c-1.29361-.914-2.436-.52465-3.52567,1.01688Z"/>
        <path d="M512.781,78.44822,495.8262,94.42007l-2.49618-2.65,12.58711-11.8575c-1.35739-.0643-2.72815-1.27407-4.16115-2.795l2.159-2.03429c2.89352,2.92413,4.65674,2.97659,6.87825,1.25452Z"/>
        <path d="M524.945,95.05479l-2.31,1.57856c-6.63136-1.87843-15.88595-.12807-22.03665,4.07423L498.43065,97.535c6.37341-4.35455,16.254-5.30817,21.62645-3.95747l.0558-.03806-6.97855-10.21464,2.58825-1.76836Z"/>
        <path d="M533.95942,116.6892l.96623,2.7333-26.2783-4.442-.97754-2.76518Zm-17.194,2.64483c3.52824-1.24732,6.966-.42383,8.258,3.2312,1.28075,3.62365-.86464,6.45622-4.39287,7.703-3.49661,1.236-6.93407.413-8.22613-3.24252C511.12372,123.40209,513.26911,120.57,516.76546,119.334Zm2.85392,8.07388c2.41568-.85435,3.63805-2.25186,3.02-3.99965-.618-1.7483-2.44706-2.0672-4.86274-1.21337s-3.63806,2.25135-3.02005,3.99965S517.20369,128.26175,519.61938,127.40791Zm2.357-26.00646c3.49635-1.236,6.93381-.413,8.22588,3.24251,1.281,3.62366-.85333,6.4876-4.34967,7.72361-3.52824,1.24731-6.966.42383-8.26908-3.26309C516.31385,105.51272,518.44818,102.64877,521.97642,101.40145Zm2.85366,8.07337c2.41568-.85384,3.63806-2.25135,3.02006-3.99965-.61775-1.74779-2.44681-2.06669-4.86275-1.21286-2.41568.85383-3.63805,2.25135-3.02,3.99965S522.4144,110.32916,524.83008,109.47482Z"/>
        <path d="M527.28743,138.158c7.24705-.11059,12.5758,4.42708,12.68535,11.60649.11008,7.21335-5.07774,11.911-12.32479,12.02157-7.24679.11059-12.60923-4.42605-12.7193-11.63941C514.81913,142.96724,520.04064,138.26858,527.28743,138.158Zm.30193,19.78581c4.95506-.07561,9.26821-2.43394,9.18129-8.13046-.08641-5.66257-4.46952-7.8882-9.42459-7.81259-4.95481.07562-9.30165,2.43446-9.21524,8.097C518.21775,155.79431,522.63454,158.01942,527.58936,157.94381Z"/>
        <path d="M520.26695,162.625c2.96271.47064,4.962,2.49464,4.39622,6.05657-.44955,2.82948-2.221,4.52789-4.81748,4.11538s-3.62673-2.52139-4.6341-4.55876a7.20166,7.20166,0,0,0-1.755-2.70192l-.03318-.00515-.95722,6.0252-2.39691-.38063,1.61817-10.18635c2.46352.39143,3.52052,1.68555,4.77479,4.103,1.12464,2.15824,1.66755,4.32626,3.6648,4.64362a1.69247,1.69247,0,0,0,2.15516-1.53484c.24843-1.56468-.60591-2.417-2.46995-2.71324Z"/>
        <path d="M507.836,188.51005l4.91906,2.04046,4.23625-10.21206,3.11341,1.29155L529.35,197.43417l-1.40779,3.39373-13.69942-5.68263-1.23986,2.98894-2.89532-1.201,1.23986-2.98893-4.91932-2.04046Zm10.7722-3.88854-2.95756,7.13,9.3716,3.88752Z"/>
        <path d="M502.41538,209.25926c2.97608,2.2678,4.17093,5.59364,1.8216,8.67722-2.329,3.05632-5.87319,2.81354-8.84927.54573-2.94933-2.24723-4.14418-5.57307-1.7946-8.65664C495.92187,206.76925,499.46631,207.012,502.41538,209.25926Zm-5.1891,6.8101c2.03763,1.55285,3.87621,1.80951,4.99982.33485s.38834-3.17925-1.64929-4.7321c-2.03763-1.55233-3.8762-1.809-4.99982-.33433C494.45338,212.81193,495.18865,214.51651,497.22628,216.06936Zm16.82106,6.12189-1.757,2.30535-10.68116-24.41195,1.77736-2.33261Zm6.22141-18.39807c2.94908,2.24723,4.14393,5.57307,1.7946,8.65664-2.329,3.05632-5.89377,2.84029-8.84284.59306-2.97608-2.26781-4.17093-5.59365-1.801-8.70346C513.72792,201.30934,517.29268,201.52537,520.26875,203.79318Zm-5.1891,6.8101c2.03763,1.55233,3.87621,1.80951,4.99982.33484s.38834-3.17924-1.64929-4.73209c-2.03763-1.55233-3.8762-1.809-4.99982-.33485C512.30675,207.34585,513.042,209.05043,515.07965,210.60328Z"/>
        <path d="M487.57,242.27025c4.513-2.82794,3.82837-7.72926,1.28692-11.785-2.55944-4.08451-6.67148-6.83839-11.18445-4.01045-3.94179,2.47-3.69464,5.97479-2.33751,8.58516l-3.28469,2.05846c-2.38893-4.82828-1.27663-10.09942,3.89318-13.33885,5.79836-3.63343,12.3037-1.5045,16.15162,4.63642,3.86617,6.16973,2.91641,12.97006-2.882,16.60348-5.14127,3.22194-10.32343,1.9345-13.36843-1.846l3.28469-2.058C480.75345,242.88182,483.657,244.72219,487.57,242.27025Z"/>
        <path d="M471.51172,241.03322c2.37608,6.84765-.26361,13.33061-7.04773,15.68432-6.81576,2.3645-12.90319-1.08993-15.279-7.93758-2.37582-6.84816.25255-13.36251,7.06857-15.727C463.03741,230.69925,469.1359,234.18557,471.51172,241.03322Zm-18.69589,6.48657c1.6246,4.6822,5.21585,8.03941,10.59835,6.17178,5.35087-1.85632,6.09129-6.71649,4.46669-11.39869-1.62435-4.68169-5.22691-8.07079-10.57752-6.21448C451.92059,237.946,451.19149,242.8381,452.81583,247.51979Z"/>
        <path d="M446.13535,242.14783c.5766,2.94367-.637,5.517-4.17659,6.21036-2.81174.55036-5.01525-.52927-5.5206-3.10929-.50536-2.58054,1.1213-4.27278,2.688-5.91924a7.202,7.202,0,0,0,1.934-2.57693l-.00643-.03292-5.98739,1.17222-.46652-2.38148,10.12231-1.98233c.47938,2.44783-.37239,3.88546-2.21174,5.89454-1.64,1.7982-3.4894,3.05323-3.10081,5.03814a1.69272,1.69272,0,0,0,2.18217,1.49627c1.55464-.3045,2.06154-1.40009,1.69866-3.25229Z"/>
        <path d="M421.19258,263.59142l-1.67706-23.23,3.63059-.26232,1.24527,17.24643c.90681-1.01174,2.71015-1.3111,4.79458-1.46129l.21346,2.95807c-4.094.39709-5.24825,1.73082-5.31563,4.54075Z"/>
        <path d="M403.22991,246.71019c0,3.74144-1.92113,6.70774-5.79759,6.70774-3.84251,0-5.79733-2.9663-5.79733-6.70774,0-3.7075,1.92113-6.6738,5.79733-6.6738C401.27509,240.03639,403.22991,243.00269,403.22991,246.71019Zm-8.56149,0c0,2.5615.91016,4.17967,2.7639,4.17967,1.854,0,2.76416-1.61817,2.76416-4.17967s-.91015-4.17968-2.76416-4.17968C395.57858,242.53051,394.66842,244.14868,394.66842,246.71019Zm5.32566,17.089h-2.89866l12.94331-23.29116h2.93235Zm18.40374-6.20162c0,3.7075-1.92113,6.6738-5.79733,6.6738-3.84277,0-5.83128-2.9663-5.83128-6.6738,0-3.74144,1.92113-6.70774,5.83128-6.70774C416.40931,250.88986,418.39782,253.85616,418.39782,257.5976Zm-8.56149,0c0,2.56151.91015,4.17916,2.76416,4.17916,1.85374,0,2.7639-1.61765,2.7639-4.17916,0-2.562-.91016-4.17967-2.7639-4.17967C410.74648,253.41793,409.83633,255.03559,409.83633,257.5976Z"/>
      </g>
    </g>
    <g>
      <rect x="630.07093" y="240.5082" width="116.79169" height="26.28164"/>
      <rect x="630.07093" y="35.18159" width="113.50649" height="26.28216"/>
      <rect x="630.07093" y="133.73826" width="100.36567" height="26.28164"/>
      <polygon points="614.797 240.508 614.797 160.02 614.797 133.738 614.797 61.464 614.797 35.182 584.573 35.182 584.573 266.79 614.797 266.79 614.797 240.508"/>
    </g>
    <g>
      <polygon points="913.19 225.068 836.645 35.182 789.337 35.182 789.337 266.79 819.561 266.79 819.561 73.29 822.518 73.29 900.378 266.79 928.959 266.79 929.5 265.451 913.19 225.068"/>
      <polygon points="993.021 35.182 922.933 208.307 937.737 245.031 1007.147 72.962 1010.104 72.962 1010.104 266.79 1040 266.79 1040 35.182 993.021 35.182"/>
    </g>
  </g>
</svg>
